<svg xmlns="http://www.w3.org/2000/svg" viewBox="0 0 880 140" role="img" aria-labelledby="t4">
  <title id="t4">Pasi metodologici</title>
  <defs>
    <marker id="m" markerWidth="7" markerHeight="7" refX="6" refY="3" orient="auto"><path d="M0,0 L7,3 L0,6 Z" fill="#6ebe46"/></marker>
  </defs>
  <rect x="4" y="4" width="872" height="132" rx="8" fill="rgba(6,27,46,0.45)" stroke="rgba(255,255,255,0.08)" stroke-width="1"/>
  <text x="440" y="28" text-anchor="middle" fill="#9ec5e8" font-family="system-ui,sans-serif" font-size="10.5" font-weight="600" letter-spacing="0.05em">METODOLOGIE &#8212; PA&#536;I ANALITICI</text>
  <g font-family="system-ui,sans-serif">
    <g>
      <rect x="24" y="48" width="190" height="72" rx="6" fill="#104b86" stroke="#6ebe46" stroke-width="1.2"/>
      <text x="119" y="78" text-anchor="middle" fill="#6ebe46" font-size="13" font-weight="700">(a)</text>
      <text x="119" y="98" text-anchor="middle" fill="#fff" font-size="10">Context interna&#539;ional</text>
      <text x="119" y="112" text-anchor="middle" fill="#c8dff5" font-size="9">&#537;i european</text>
    </g>
    <path d="M 218 84 L 238 84" stroke="#6ebe46" stroke-width="2" marker-end="url(#m)"/>
    <g>
      <rect x="242" y="48" width="190" height="72" rx="6" fill="#104b86" stroke="#6ebe46" stroke-width="1.2"/>
      <text x="337" y="78" text-anchor="middle" fill="#6ebe46" font-size="13" font-weight="700">(b)</text>
      <text x="337" y="98" text-anchor="middle" fill="#fff" font-size="10">Sistem de s&#259;n&#259;tate &#537;i</text>
      <text x="337" y="112" text-anchor="middle" fill="#c8dff5" font-size="9">arhitectur&#259; digital&#259;</text>
    </g>
    <path d="M 436 84 L 456 84" stroke="#6ebe46" stroke-width="2" marker-end="url(#m)"/>
    <g>
      <rect x="460" y="48" width="190" height="72" rx="6" fill="#104b86" stroke="#6ebe46" stroke-width="1.2"/>
      <text x="555" y="78" text-anchor="middle" fill="#6ebe46" font-size="13" font-weight="700">(c)</text>
      <text x="555" y="98" text-anchor="middle" fill="#fff" font-size="10">Indicatori fa&#539;&#259; de</text>
      <text x="555" y="112" text-anchor="middle" fill="#c8dff5" font-size="9">media UE</text>
    </g>
    <path d="M 654 84 L 674 84" stroke="#6ebe46" stroke-width="2" marker-end="url(#m)"/>
    <g>
      <rect x="678" y="48" width="178" height="72" rx="6" fill="rgba(110,190,70,0.22)" stroke="#6ebe46" stroke-width="1.2"/>
      <text x="767" y="78" text-anchor="middle" fill="#6ebe46" font-size="13" font-weight="700">(d)</text>
      <text x="767" y="98" text-anchor="middle" fill="#fff" font-size="10">Provoc&#259;ri</text>
      <text x="767" y="112" text-anchor="middle" fill="#c8dff5" font-size="9">ale profesioni&#537;tilor</text>
    </g>
  </g>
</svg>
