<svg xmlns="http://www.w3.org/2000/svg" viewBox="0 0 720 260" role="img" aria-labelledby="t8">
  <title id="t8">PIAS schema CNAS</title>
  <rect x="4" y="4" width="712" height="252" rx="10" fill="rgba(6,27,46,0.5)" stroke="rgba(110,190,70,0.3)" stroke-width="1"/>
  <text x="360" y="32" text-anchor="middle" fill="#b8d4f0" font-family="system-ui,sans-serif" font-size="11" font-weight="600" letter-spacing="0.05em">PIAS &#8212; SCHEM&#258; CONCEPTUAL&#258; (HUB)</text>
  <circle cx="360" cy="130" r="44" fill="#104b86" stroke="#6ebe46" stroke-width="2"/>
  <text x="360" y="128" text-anchor="middle" fill="#6ebe46" font-family="Georgia,serif" font-size="14" font-weight="700">CNAS</text>
  <text x="360" y="146" text-anchor="middle" fill="#ddeaf7" font-family="system-ui,sans-serif" font-size="9">nod central</text>
  <g font-family="system-ui,sans-serif">
    <rect x="48" y="88" width="120" height="56" rx="6" fill="rgba(16,75,134,0.9)" stroke="#6ebe46" stroke-width="1"/>
    <text x="108" y="112" text-anchor="middle" fill="#fff" font-size="11" font-weight="700">SIUI</text>
    <text x="108" y="128" text-anchor="middle" fill="#b8d4f0" font-size="8.5">asigur&#259;ri, valid&#259;ri</text>
    <rect x="48" y="168" width="120" height="56" rx="6" fill="rgba(16,75,134,0.9)" stroke="#6ebe46" stroke-width="1"/>
    <text x="108" y="192" text-anchor="middle" fill="#fff" font-size="11" font-weight="700">SIPE</text>
    <text x="108" y="208" text-anchor="middle" fill="#b8d4f0" font-size="8.5">prescriere electronic&#259;</text>
    <rect x="552" y="88" width="120" height="56" rx="6" fill="rgba(16,75,134,0.9)" stroke="#8ed56a" stroke-width="1"/>
    <text x="612" y="112" text-anchor="middle" fill="#fff" font-size="11" font-weight="700">SECA / CEAS</text>
    <text x="612" y="128" text-anchor="middle" fill="#b8d4f0" font-size="8.5">card de s&#259;n&#259;tate</text>
    <rect x="552" y="168" width="120" height="56" rx="6" fill="rgba(16,75,134,0.9)" stroke="#8ed56a" stroke-width="1"/>
    <text x="612" y="192" text-anchor="middle" fill="#fff" font-size="11" font-weight="700">DES</text>
    <text x="612" y="208" text-anchor="middle" fill="#b8d4f0" font-size="8.5">dosar electronic</text>
  </g>
  <g stroke="#6ebe46" stroke-width="1.2" fill="none" opacity="0.85">
    <path d="M 168 116 L 318 116"/>
    <path d="M 168 196 L 318 145"/>
    <path d="M 552 116 L 402 116"/>
    <path d="M 552 196 L 402 145"/>
  </g>
  <text x="360" y="248" text-anchor="middle" fill="#8aa8c4" font-family="system-ui,sans-serif" font-size="9" font-style="italic">Schem&#259; sintetic&#259;; varianta detaliat&#259; &#238;n Figura 11</text>
</svg>
